<svg width="311" height="20" viewBox="0 0 311 20" fill="none" xmlns="http://www.w3.org/2000/svg">
<g clip-path="url(#clip0_142_1774)">
<path d="M114.292 0.0319824C119.77 0.0319824 121.129 2.53598 121.129 6.80798V7.024C121.129 7.4 120.89 7.776 120.461 7.776H118.06C117.583 7.776 117.416 7.47999 117.416 6.96799C117.416 4.19999 117.043 3.63198 114.292 3.63198C111.621 3.63198 111.192 4.59999 111.192 7.36799V12.016C111.192 14.784 111.621 15.752 114.292 15.752C117.043 15.752 117.416 15.184 117.416 12.416C117.416 11.936 117.631 11.688 118.14 11.688H120.493C120.843 11.688 121.137 11.984 121.137 12.36V12.576C121.137 16.928 119.778 19.352 114.3 19.352C108.902 19.352 107.463 16.8 107.463 12.472V6.90398C107.455 2.58398 108.894 0.0319824 114.292 0.0319824Z" fill="#9B8782"/>
<path d="M124.547 6.91199C124.547 2.55999 126.416 0.0319824 131.837 0.0319824C137.291 0.0319824 139.159 2.63999 139.159 6.91199V12.48C139.159 16.832 137.291 19.36 131.837 19.36C126.416 19.36 124.547 16.832 124.547 12.48V6.91199ZM128.284 12.104C128.284 14.872 129.11 15.76 131.837 15.76C134.588 15.76 135.415 14.872 135.415 12.104V7.296C135.415 4.528 134.588 3.63999 131.837 3.63999C129.11 3.63999 128.284 4.528 128.284 7.296V12.104Z" fill="#9B8782"/>
<path d="M143.833 0.328003H149.708C153.365 0.328003 154.836 2.12798 154.836 4.65598C154.836 6.40798 153.683 8.584 151.227 8.928C154.168 9.248 155.663 11.344 155.663 13.688C155.663 17.48 153.182 19.12 149.255 19.12H143.833C143.492 19.12 143.245 18.88 143.245 18.528V0.919995C143.245 0.567995 143.484 0.328003 143.833 0.328003ZM148.937 7.61599C150.487 7.61599 151.076 6.784 151.076 5.576C151.076 4.496 150.646 3.66399 148.993 3.66399H146.989V7.61599H148.937ZM146.981 15.784H148.635C150.956 15.784 151.894 15.272 151.894 13.312C151.894 11.352 150.933 10.808 148.635 10.808H146.981V15.784Z" fill="#9B8782"/>
<path d="M159.939 0.328003H165.711C169.741 0.328003 171.991 2.95998 171.991 7.10398C171.991 10.36 170.552 12.264 168.199 12.992C168.517 14.688 169.535 15.736 171.3 15.92C171.649 15.944 171.888 16.192 171.888 16.536V18.768C171.888 19.12 171.649 19.36 171.3 19.36C167.69 19.176 165.608 17.424 164.892 13.744H163.103V18.528C163.103 18.88 162.865 19.12 162.515 19.12H159.947C159.606 19.12 159.359 18.88 159.359 18.528V0.919995C159.351 0.567995 159.598 0.328003 159.939 0.328003ZM163.095 10.328H164.94C167.237 10.328 168.255 9.35998 168.255 7.10398C168.255 4.73598 167.237 3.85598 164.94 3.85598H163.095V10.328Z" fill="#9B8782"/>
<path d="M175.004 6.91199C175.004 2.55999 176.872 0.0319824 182.294 0.0319824C187.747 0.0319824 189.615 2.63999 189.615 6.91199V12.48C189.615 16.832 187.747 19.36 182.294 19.36C176.872 19.36 175.004 16.832 175.004 12.48V6.91199ZM178.748 12.104C178.748 14.872 179.575 15.76 182.302 15.76C185.052 15.76 185.879 14.872 185.879 12.104V7.296C185.879 4.528 185.052 3.63999 182.302 3.63999C179.575 3.63999 178.748 4.528 178.748 7.296V12.104Z" fill="#9B8782"/>
<path d="M199.926 0.328003H205.936C210.452 0.328003 212.932 2.824 212.932 7.32V12.128C212.932 16.568 210.499 19.12 205.936 19.12H199.926C199.584 19.12 199.338 18.88 199.338 18.528V0.919995C199.338 0.567995 199.584 0.328003 199.926 0.328003ZM205.3 15.6C208.186 15.6 209.204 14.448 209.204 11.456V8.01599C209.204 5.03199 208.218 3.848 205.3 3.848H203.082V15.592H205.3V15.6Z" fill="#9B8782"/>
<path d="M222.528 0.328003H226.749C227.099 0.328003 227.337 0.567995 227.337 0.919995V3.25598C227.337 3.60798 227.099 3.848 226.749 3.848H222.766C220.977 3.848 220.23 4.51999 220.23 6.23999V7.47998H226.296C226.638 7.47998 226.884 7.72 226.884 8.072V10.328C226.884 10.68 226.645 10.92 226.296 10.92H220.23V13.232C220.23 14.984 221.009 15.6 222.766 15.6H226.749C227.099 15.6 227.337 15.84 227.337 16.192V18.528C227.337 18.88 227.099 19.12 226.749 19.12H222.528C218.783 19.12 216.494 16.944 216.494 13.312V6.13599C216.486 2.44799 218.839 0.328003 222.528 0.328003Z" fill="#9B8782"/>
<path d="M235.191 0.919995C235.191 0.567995 235.43 0.328003 235.78 0.328003H246.281C246.631 0.328003 246.87 0.567995 246.87 0.919995V3.25598C246.87 3.60798 246.631 3.848 246.281 3.848H242.918V18.528C242.918 18.88 242.68 19.12 242.33 19.12H239.77C239.421 19.12 239.182 18.88 239.182 18.528V3.848H235.788C235.438 3.848 235.199 3.60798 235.199 3.25598V0.919995H235.191Z" fill="#9B8782"/>
<path d="M248.571 18.392L252.021 3.096C252.474 1.048 254.024 0 255.869 0C257.681 0 259.311 1.048 259.772 3.096L263.166 18.392C263.278 18.824 263.031 19.12 262.602 19.12H259.987C259.692 19.12 259.478 18.928 259.398 18.64L258.73 15.28H253.038L252.347 18.664C252.267 18.936 252.053 19.12 251.759 19.12H249.167C248.706 19.12 248.467 18.824 248.571 18.392ZM258.055 11.912L256.401 4.03999C256.322 3.60799 256.083 3.472 255.869 3.472C255.654 3.472 255.439 3.60799 255.36 4.03999L253.73 11.912H258.055Z" fill="#9B8782"/>
<path d="M277.206 5.78397H274.511C274.216 5.78397 273.978 5.48799 273.978 5.24799V4.97599C273.978 4.16799 273.581 3.31198 271.999 3.31198C270.607 3.31198 270.099 4.14399 270.099 4.97599C270.099 5.83999 270.496 6.42398 271.41 6.96798L275.099 9.25597C277.293 10.624 278.144 12.08 278.144 13.96C278.144 17.4 275.822 19.36 272.293 19.36C269.113 19.36 266.466 18.016 266.466 14.384V14.2C266.466 13.904 266.704 13.584 266.998 13.584H269.725C269.995 13.584 270.234 13.824 270.234 14.096V14.368C270.234 15.392 270.798 16.088 272.293 16.088C273.867 16.088 274.296 15.224 274.296 14.152C274.296 13.344 273.74 12.704 272.778 12.112L269.383 10.04C267.356 8.83198 266.338 7.23998 266.338 5.06398C266.338 1.70398 268.556 0.039978 271.999 0.039978C275.043 0.039978 277.714 1.32798 277.714 5.01598V5.25597C277.714 5.56797 277.42 5.78397 277.206 5.78397Z" fill="#9B8782"/>
<path d="M281.315 18.392L284.766 3.096C285.219 1.048 286.769 0 288.613 0C290.426 0 292.055 1.048 292.517 3.096L295.911 18.392C296.022 18.824 295.776 19.12 295.347 19.12H292.731C292.437 19.12 292.222 18.928 292.143 18.64L291.475 15.28H285.783L285.091 18.664C285.012 18.936 284.797 19.12 284.503 19.12H281.912C281.451 19.12 281.212 18.824 281.315 18.392ZM290.799 11.912L289.146 4.03999C289.066 3.60799 288.828 3.472 288.613 3.472C288.399 3.472 288.184 3.60799 288.104 4.03999L286.475 11.912H290.799Z" fill="#9B8782"/>
<path d="M309.958 5.78397H307.263C306.969 5.78397 306.73 5.48799 306.73 5.24799V4.97599C306.73 4.16799 306.333 3.31198 304.751 3.31198C303.36 3.31198 302.851 4.14399 302.851 4.97599C302.851 5.83999 303.248 6.42398 304.163 6.96798L307.851 9.25597C310.045 10.624 310.896 12.08 310.896 13.96C310.896 17.4 308.575 19.36 305.045 19.36C301.865 19.36 299.218 18.016 299.218 14.384V14.2C299.218 13.904 299.456 13.584 299.751 13.584H302.477C302.748 13.584 302.986 13.824 302.986 14.096V14.368C302.986 15.392 303.551 16.088 305.045 16.088C306.619 16.088 307.048 15.224 307.048 14.152C307.048 13.344 306.492 12.704 305.53 12.112L302.136 10.04C300.108 8.83198 299.091 7.23998 299.091 5.06398C299.091 1.70398 301.309 0.039978 304.751 0.039978C307.796 0.039978 310.467 1.32798 310.467 5.01598V5.25597C310.459 5.56797 310.165 5.78397 309.958 5.78397Z" fill="#9B8782"/>
<path d="M92.852 4.38398V15.048C92.852 17.296 91.0395 19.12 88.8056 19.12H5.00782C2.77395 19.12 0.961426 17.296 0.961426 15.048V4.38398C0.961426 2.13598 2.77395 0.311981 5.00782 0.311981H88.8136C91.0474 0.311981 92.852 2.13598 92.852 4.38398Z" fill="#9B8782"/>
</g>
<defs>
<clipPath id="clip0_142_1774">
<rect width="310.833" height="20" fill="white" transform="translate(0.166504)"/>
</clipPath>
</defs>
</svg>
