<svg width="143" height="15" viewBox="0 0 143 15" fill="none" xmlns="http://www.w3.org/2000/svg">
<path d="M55.3732 0.723389H59.5285C62.4343 0.723389 64.0505 2.6089 64.0505 5.57182C64.0505 7.89861 63.0131 9.2683 61.3167 9.78409C61.5459 10.9991 62.2795 11.7441 63.5462 11.8816C63.7984 11.8988 63.9703 12.0765 63.9703 12.3229V13.9219C63.9703 14.174 63.7984 14.346 63.5462 14.346C60.9499 14.2084 59.4482 12.9591 58.9267 10.3228H57.6371V13.7499C57.6371 14.0021 57.4652 14.174 57.213 14.174H55.3675C55.121 14.174 54.9434 14.0021 54.9434 13.7499V1.14749C54.9491 0.89533 55.1268 0.723389 55.3732 0.723389ZM57.6429 7.88141H58.9725C60.6289 7.88141 61.3568 7.18796 61.3568 5.57182C61.3568 3.88118 60.6232 3.24504 58.9725 3.24504H57.6429V7.88141Z" fill="#B9D20A"/>
<path d="M70.5787 0.723389H73.6163C73.8685 0.723389 74.0404 0.89533 74.0404 1.14749V2.82093C74.0404 3.0731 73.8685 3.24504 73.6163 3.24504H70.7506C69.461 3.24504 68.9223 3.72644 68.9223 4.9586V5.84118H73.2896C73.536 5.84118 73.7137 6.0131 73.7137 6.26527V7.88141C73.7137 8.13358 73.5418 8.3055 73.2896 8.3055H68.9223V9.96177C68.9223 11.2111 69.4782 11.6524 70.7506 11.6524H73.6163C73.8685 11.6524 74.0404 11.8243 74.0404 12.0765V13.7499C74.0404 14.0021 73.8685 14.174 73.6163 14.174H70.5787C67.8849 14.174 66.2285 12.6152 66.2285 10.0191V4.87836C66.2285 2.2421 67.9193 0.723389 70.5787 0.723389Z" fill="#B9D20A"/>
<path d="M84.0475 4.63206H82.1045C81.8925 4.63206 81.7205 4.42002 81.7205 4.24809V4.05323C81.7205 3.4744 81.4339 2.86119 80.2991 2.86119C79.2961 2.86119 78.9351 3.4572 78.9351 4.05323C78.9351 4.66644 79.2216 5.09054 79.8807 5.47452L82.5344 7.10786C84.1105 8.08786 84.7295 9.1309 84.7295 10.4777C84.7295 12.942 83.0559 14.3461 80.5169 14.3461C78.2244 14.3461 76.3215 13.3833 76.3215 10.7871V10.6553C76.3215 10.4433 76.4935 10.214 76.7056 10.214H78.6657C78.8606 10.214 79.0325 10.386 79.0325 10.5808V10.7757C79.0325 11.5093 79.4394 12.0078 80.5169 12.0078C81.6517 12.0078 81.9612 11.3946 81.9612 10.621C81.9612 10.0421 81.56 9.58364 80.8665 9.15954L78.4193 7.67522C76.9577 6.80984 76.2241 5.67511 76.2241 4.11628C76.2241 1.70926 77.8232 0.517212 80.3049 0.517212C82.5 0.517212 84.42 1.4399 84.42 4.07615V4.24809C84.4143 4.47733 84.2022 4.63206 84.0475 4.63206Z" fill="#B9D20A"/>
<path d="M91.4351 0.723389H94.4727C94.7249 0.723389 94.8968 0.89533 94.8968 1.14749V2.82093C94.8968 3.0731 94.7249 3.24504 94.4727 3.24504H91.607C90.3175 3.24504 89.7787 3.72644 89.7787 4.9586V5.84118H94.146C94.3925 5.84118 94.5701 6.0131 94.5701 6.26527V7.88141C94.5701 8.13358 94.3982 8.3055 94.146 8.3055H89.7787V9.96177C89.7787 11.2111 90.3347 11.6524 91.607 11.6524H94.4727C94.7249 11.6524 94.8968 11.8243 94.8968 12.0765V13.7499C94.8968 14.0021 94.7249 14.174 94.4727 14.174H91.4351C88.7413 14.174 87.085 12.6152 87.085 10.0191V4.87836C87.085 2.2421 88.7814 0.723389 91.4351 0.723389Z" fill="#B9D20A"/>
<path d="M97.883 0.723389H102.038C104.944 0.723389 106.56 2.6089 106.56 5.57182C106.56 7.89861 105.523 9.2683 103.826 9.78409C104.056 10.9991 104.789 11.7441 106.056 11.8816C106.308 11.8988 106.48 12.0765 106.48 12.3229V13.9219C106.48 14.174 106.308 14.346 106.056 14.346C103.46 14.2084 101.958 12.9591 101.436 10.3228H100.147V13.7499C100.147 14.0021 99.9749 14.174 99.7228 14.174H97.8772C97.6308 14.174 97.4531 14.0021 97.4531 13.7499V1.14749C97.4589 0.89533 97.6308 0.723389 97.883 0.723389ZM100.153 7.88141H101.482C103.139 7.88141 103.867 7.18796 103.867 5.57182C103.867 3.88118 103.133 3.24504 101.482 3.24504H100.153V7.88141Z" fill="#B9D20A"/>
<path d="M108.887 0.723389H110.773C110.985 0.723389 111.14 0.860937 111.197 1.05006L113.449 11.5206C113.53 11.8472 113.719 11.9218 113.873 11.9218C114.028 11.9218 114.275 11.8472 114.355 11.5206L116.567 1.05006C116.625 0.855206 116.779 0.723389 116.991 0.723389H118.86C119.186 0.723389 119.358 0.935438 119.284 1.24491L116.837 12.0593C116.493 13.6353 115.415 14.4262 113.873 14.4262C112.332 14.4262 111.312 13.6353 110.95 12.0593L108.469 1.24491C108.389 0.935438 108.56 0.723389 108.887 0.723389Z" fill="#B9D20A"/>
<path d="M121.107 13.6584L123.588 2.71216C123.915 1.25075 125.033 0.5 126.362 0.5C127.669 0.5 128.844 1.25075 129.171 2.71216L131.612 13.6584C131.692 13.9678 131.515 14.1799 131.205 14.1799H129.32C129.108 14.1799 128.953 14.0423 128.896 13.836L128.414 11.429H124.316L123.818 13.8532C123.76 14.0481 123.605 14.1799 123.393 14.1799H121.525C121.204 14.1741 121.032 13.9621 121.107 13.6584ZM127.938 9.01625L126.746 3.37695C126.689 3.06748 126.517 2.97579 126.362 2.97579C126.208 2.97579 126.053 3.07321 125.995 3.37695L124.821 9.01625H127.938Z" fill="#B9D20A"/>
<path d="M141.734 4.63206H139.791C139.579 4.63206 139.407 4.42002 139.407 4.24809V4.05323C139.407 3.4744 139.12 2.86119 137.986 2.86119C136.983 2.86119 136.622 3.4572 136.622 4.05323C136.622 4.66644 136.908 5.09054 137.567 5.47452L140.221 7.10786C141.797 8.08786 142.416 9.1309 142.416 10.4777C142.416 12.942 140.742 14.3461 138.203 14.3461C135.911 14.3461 134.008 13.3833 134.008 10.7871V10.6553C134.008 10.4433 134.18 10.214 134.392 10.214H136.352C136.547 10.214 136.719 10.386 136.719 10.5808V10.7757C136.719 11.5093 137.126 12.0078 138.203 12.0078C139.338 12.0078 139.648 11.3946 139.648 10.621C139.648 10.0421 139.247 9.58364 138.553 9.15954L136.106 7.67522C134.644 6.80984 133.911 5.67511 133.911 4.11628C133.911 1.70926 135.51 0.517212 137.991 0.517212C140.187 0.517212 142.107 1.4399 142.107 4.07615V4.24809C142.101 4.47733 141.889 4.63206 141.734 4.63206Z" fill="#B9D20A"/>
<path d="M44.1135 0.505127C41.3129 0.505127 39.9546 1.78991 39.9546 4.4331V7.31378C39.9546 9.95633 41.3161 11.2411 44.1135 11.2411C45.596 11.2411 46.653 10.8993 47.3433 10.1964C47.9832 9.54791 48.2896 8.60497 48.2896 7.3157V4.43502C48.2896 1.79247 46.9236 0.505127 44.1135 0.505127ZM45.6139 7.11918C45.6139 8.36235 45.3336 8.6485 44.1135 8.6485C42.9048 8.6485 42.6272 8.36235 42.6272 7.11918V4.63027C42.6272 3.38709 42.9048 3.10094 44.1135 3.10094C45.3336 3.10094 45.6139 3.38709 45.6139 4.63027V7.11918Z" fill="#000563"/>
<path d="M11.0837 0.640839H12.9865C13.0785 0.639133 13.1686 0.667093 13.2435 0.720584C13.3184 0.774075 13.3741 0.850257 13.4024 0.93787L15.622 7.77853C15.7211 8.09541 15.8996 8.19463 16.0775 8.19463C16.2759 8.19463 16.494 8.09541 16.5932 7.77853L18.7731 0.93787C18.8012 0.850147 18.8569 0.773847 18.9318 0.720327C19.0067 0.666807 19.0969 0.638927 19.189 0.640839H21.0912C21.4681 0.640839 21.6261 0.878336 21.5077 1.21698L19.07 8.47374C18.7533 9.425 18.1979 10.1189 17.4647 10.3372V14.0635C17.4675 14.1215 17.4582 14.1795 17.4373 14.2337C17.4164 14.2878 17.3844 14.337 17.3433 14.3781C17.3023 14.4192 17.2531 14.4512 17.199 14.4721C17.1448 14.493 17.0869 14.5023 17.0289 14.4995H15.1267C15.0687 14.5023 15.0108 14.493 14.9566 14.4721C14.9024 14.4512 14.8532 14.4192 14.8121 14.3781C14.771 14.3371 14.739 14.2879 14.718 14.2337C14.697 14.1795 14.6876 14.1216 14.6904 14.0635V10.3161C13.977 10.0978 13.4421 9.40388 13.1247 8.47246L10.6678 1.2157C10.5488 0.878336 10.7074 0.640839 11.0837 0.640839Z" fill="#000563"/>
<path d="M22.1628 14.0251L23.3458 2.68164C23.5237 1.04157 24.5711 0.505127 25.8942 0.505127C27.2571 0.505127 28.2053 1.19713 28.5015 2.5805L29.9431 9.49414C29.9629 9.59272 29.9827 9.6913 30.1209 9.6913C30.2591 9.6913 30.279 9.59272 30.2988 9.49414L31.741 2.5805C32.0372 1.17729 33.0046 0.505127 34.3483 0.505127C35.6919 0.505127 36.738 1.03901 36.9159 2.68164L38.1009 14.0251C38.1405 14.3017 37.9627 14.4995 37.6863 14.4995H35.7508C35.641 14.5042 35.5337 14.4653 35.4524 14.3914C35.371 14.3174 35.3221 14.2143 35.3163 14.1045L34.4475 3.57081C34.4492 3.54442 34.4452 3.51798 34.4359 3.49324C34.4265 3.46851 34.412 3.44605 34.3933 3.42738C34.3746 3.40872 34.3521 3.39426 34.3273 3.385C34.3026 3.37573 34.2761 3.37186 34.2497 3.37365C34.2004 3.37219 34.1524 3.38979 34.1157 3.42282C34.079 3.45584 34.0564 3.50173 34.0527 3.55097L32.5708 10.4646C32.3341 11.5317 31.6821 12.5598 30.1216 12.5598C28.5809 12.5598 27.9295 11.5317 27.6902 10.4646L26.209 3.55097C26.2008 3.49988 26.1741 3.45361 26.134 3.42092C26.0939 3.38824 26.0432 3.37141 25.9915 3.37365C25.8533 3.37365 25.8136 3.47223 25.8136 3.57081L24.9262 14.1045C24.9202 14.2143 24.8713 14.3173 24.79 14.3912C24.7086 14.4651 24.6015 14.504 24.4917 14.4995H22.5761C22.299 14.4995 22.1212 14.3017 22.1628 14.0251Z" fill="#000563"/>
<path d="M10.7638 13.9675L8.26463 2.76486C7.93 1.26818 6.72904 0.5 5.39116 0.5C4.0328 0.5 2.89135 1.26818 2.55672 2.76486L0.0185249 13.9675C-0.0601739 14.2831 0.117059 14.4995 0.451689 14.4995H2.3603C2.45945 14.5002 2.55597 14.4676 2.63439 14.4069C2.71282 14.3462 2.76861 14.2609 2.79282 14.1647L3.30468 11.6835L3.81654 9.22207L5.01686 3.44982C5.07636 3.13486 5.23376 3.03628 5.39116 3.03628C5.54856 3.03628 5.72579 3.13486 5.78465 3.44982L7.00481 9.21951L7.49683 11.6809L7.98886 14.1423C8.04772 14.3593 8.20512 14.4969 8.42202 14.4969H10.3505C10.6653 14.4995 10.8425 14.2831 10.7638 13.9675Z" fill="#000563"/>
<path d="M41.0054 12.9817V14.0802C41.0054 14.3118 41.193 14.4995 41.4245 14.4995H46.8169C47.0484 14.4995 47.236 14.3118 47.236 14.0802V12.9817C47.236 12.7501 47.0484 12.5624 46.8169 12.5624H41.4245C41.193 12.5624 41.0054 12.7501 41.0054 12.9817Z" fill="#B9D20A"/>
</svg>
