<svg width="311" height="20" viewBox="0 0 311 20" fill="none" xmlns="http://www.w3.org/2000/svg">
<g clip-path="url(#clip0_142_1772)">
<path d="M189.648 0.615982H195.412C199.442 0.615982 201.684 3.248 201.684 7.384C201.684 10.632 200.245 12.544 197.892 13.264C198.21 14.96 199.227 16 200.984 16.192C201.334 16.216 201.573 16.464 201.573 16.808V19.04C201.573 19.392 201.334 19.632 200.984 19.632C197.383 19.44 195.3 17.696 194.577 14.016H192.788V18.8C192.788 19.152 192.55 19.392 192.2 19.392H189.64C189.298 19.392 189.052 19.152 189.052 18.8V1.208C189.06 0.855999 189.306 0.615982 189.648 0.615982ZM192.796 10.608H194.64C196.938 10.608 197.947 9.64 197.947 7.384C197.947 5.024 196.93 4.136 194.64 4.136H192.796V10.608Z" fill="#B9D20A"/>
<path d="M210.738 0.615982H214.952C215.302 0.615982 215.54 0.855999 215.54 1.208V3.54399C215.54 3.89599 215.302 4.136 214.952 4.136H210.977C209.188 4.136 208.441 4.80799 208.441 6.52799V7.76H214.499C214.84 7.76 215.087 7.99999 215.087 8.35199V10.608C215.087 10.96 214.848 11.2 214.499 11.2H208.441V13.512C208.441 15.256 209.212 15.872 210.977 15.872H214.952C215.302 15.872 215.54 16.112 215.54 16.464V18.8C215.54 19.152 215.302 19.392 214.952 19.392H210.738C207.002 19.392 204.705 17.216 204.705 13.592V6.41598C204.705 2.73598 207.05 0.615982 210.738 0.615982Z" fill="#B9D20A"/>
<path d="M229.42 6.072H226.725C226.431 6.072 226.193 5.77601 226.193 5.53601V5.26399C226.193 4.45599 225.795 3.6 224.221 3.6C222.83 3.6 222.329 4.43199 222.329 5.26399C222.329 6.11999 222.727 6.712 223.641 7.248L227.321 9.528C229.508 10.896 230.366 12.352 230.366 14.232C230.366 17.672 228.045 19.632 224.523 19.632C221.343 19.632 218.704 18.288 218.704 14.664V14.48C218.704 14.184 218.943 13.864 219.237 13.864H221.955C222.226 13.864 222.464 14.104 222.464 14.376V14.648C222.464 15.672 223.029 16.368 224.523 16.368C226.097 16.368 226.527 15.512 226.527 14.432C226.527 13.624 225.97 12.984 225.008 12.392L221.614 10.32C219.586 9.112 218.569 7.528 218.569 5.352C218.569 1.992 220.787 0.328003 224.229 0.328003C227.274 0.328003 229.937 1.616 229.937 5.296V5.53601C229.929 5.85601 229.635 6.072 229.42 6.072Z" fill="#B9D20A"/>
<path d="M239.668 0.615982H243.881C244.231 0.615982 244.469 0.855999 244.469 1.208V3.54399C244.469 3.89599 244.231 4.136 243.881 4.136H239.906C238.117 4.136 237.37 4.80799 237.37 6.52799V7.76H243.428C243.77 7.76 244.016 7.99999 244.016 8.35199V10.608C244.016 10.96 243.778 11.2 243.428 11.2H237.37V13.512C237.37 15.256 238.141 15.872 239.906 15.872H243.881C244.231 15.872 244.469 16.112 244.469 16.464V18.8C244.469 19.152 244.231 19.392 243.881 19.392H239.668C235.931 19.392 233.634 17.216 233.634 13.592V6.41598C233.634 2.73598 235.987 0.615982 239.668 0.615982Z" fill="#B9D20A"/>
<path d="M248.611 0.615982H254.374C258.405 0.615982 260.647 3.248 260.647 7.384C260.647 10.632 259.208 12.544 256.855 13.264C257.173 14.96 258.19 16 259.947 16.192C260.297 16.216 260.535 16.464 260.535 16.808V19.04C260.535 19.392 260.297 19.632 259.947 19.632C256.346 19.44 254.263 17.696 253.54 14.016H251.751V18.8C251.751 19.152 251.513 19.392 251.163 19.392H248.603C248.261 19.392 248.015 19.152 248.015 18.8V1.208C248.023 0.855999 248.261 0.615982 248.611 0.615982ZM251.759 10.608H253.603C255.901 10.608 256.91 9.64 256.91 7.384C256.91 5.024 255.893 4.136 253.603 4.136H251.759V10.608Z" fill="#B9D20A"/>
<path d="M263.875 0.615982H266.49C266.784 0.615982 266.999 0.807988 267.078 1.07199L270.203 15.688C270.314 16.144 270.576 16.248 270.791 16.248C271.005 16.248 271.347 16.144 271.459 15.688L274.527 1.07199C274.607 0.799988 274.821 0.615982 275.115 0.615982H277.707C278.16 0.615982 278.399 0.911985 278.295 1.34398L274.901 16.44C274.424 18.64 272.929 19.744 270.791 19.744C268.652 19.744 267.237 18.64 266.736 16.44L263.294 1.34398C263.183 0.911985 263.421 0.615982 263.875 0.615982Z" fill="#B9D20A"/>
<path d="M280.823 18.672L284.265 3.39199C284.719 1.35199 286.269 0.304001 288.113 0.304001C289.926 0.304001 291.555 1.35199 292.008 3.39199L295.395 18.672C295.506 19.104 295.26 19.4 294.831 19.4H292.215C291.921 19.4 291.706 19.208 291.627 18.92L290.959 15.56H285.275L284.583 18.944C284.504 19.216 284.289 19.4 283.995 19.4H281.404C280.958 19.392 280.72 19.096 280.823 18.672ZM290.299 12.192L288.646 4.31999C288.566 3.88799 288.328 3.76001 288.113 3.76001C287.898 3.76001 287.684 3.89599 287.604 4.31999L285.975 12.192H290.299Z" fill="#B9D20A"/>
<path d="M309.434 6.072H306.739C306.445 6.072 306.207 5.77601 306.207 5.53601V5.26399C306.207 4.45599 305.809 3.6 304.235 3.6C302.844 3.6 302.343 4.43199 302.343 5.26399C302.343 6.11999 302.741 6.712 303.655 7.248L307.336 9.528C309.522 10.896 310.38 12.352 310.38 14.232C310.38 17.672 308.059 19.632 304.537 19.632C301.357 19.632 298.718 18.288 298.718 14.664V14.48C298.718 14.184 298.957 13.864 299.251 13.864H301.97C302.24 13.864 302.478 14.104 302.478 14.376V14.648C302.478 15.672 303.043 16.368 304.537 16.368C306.111 16.368 306.541 15.512 306.541 14.432C306.541 13.624 305.984 12.984 305.022 12.392L301.628 10.32C299.601 9.112 298.583 7.528 298.583 5.352C298.583 1.992 300.801 0.328003 304.243 0.328003C307.288 0.328003 309.951 1.616 309.951 5.296V5.53601C309.943 5.85601 309.649 6.072 309.434 6.072Z" fill="#B9D20A"/>
<path d="M174.218 4.672V15.328C174.218 17.576 172.405 19.392 170.179 19.392H4.73814C2.50428 19.392 0.699707 17.568 0.699707 15.328V4.672C0.699707 2.424 2.51223 0.608013 4.73814 0.608013H170.179C172.405 0.600013 174.218 2.424 174.218 4.672Z" fill="#B9D20A"/>
</g>
<defs>
<clipPath id="clip0_142_1772">
<rect width="310.833" height="20" fill="white"/>
</clipPath>
</defs>
</svg>
