<svg width="312" height="20" viewBox="0 0 312 20" fill="none" xmlns="http://www.w3.org/2000/svg">
<g clip-path="url(#clip0_142_1776)">
<path d="M50.2693 0.415985C55.7466 0.415985 57.106 2.91999 57.106 7.19199V7.408C57.106 7.784 56.8675 8.16 56.4382 8.16H54.0374C53.5604 8.16 53.3935 7.864 53.3935 7.352C53.3935 4.584 53.0198 4.01599 50.2693 4.01599C47.5982 4.01599 47.1689 4.984 47.1689 7.752V12.4C47.1689 15.168 47.5982 16.136 50.2693 16.136C53.0198 16.136 53.3935 15.568 53.3935 12.8C53.3935 12.32 53.6081 12.072 54.1169 12.072H56.47C56.8198 12.072 57.1139 12.368 57.1139 12.744V12.96C57.1139 17.312 55.7546 19.736 50.2772 19.736C44.8794 19.736 43.4405 17.184 43.4405 12.856V7.28798C43.4325 2.96798 44.8714 0.415985 50.2693 0.415985Z" fill="#CDA50A"/>
<path d="M60.5244 7.29599C60.5244 2.94399 62.3926 0.415985 67.8143 0.415985C73.2678 0.415985 75.136 3.02399 75.136 7.29599V12.864C75.136 17.216 73.2678 19.744 67.8143 19.744C62.3926 19.744 60.5244 17.216 60.5244 12.864V7.29599ZM64.2687 12.488C64.2687 15.256 65.0955 16.144 67.8222 16.144C70.5728 16.144 71.3996 15.256 71.3996 12.488V7.68C71.3996 4.912 70.5728 4.02399 67.8222 4.02399C65.0955 4.02399 64.2687 4.912 64.2687 7.68V12.488Z" fill="#CDA50A"/>
<path d="M82.2427 0.519989C83.7372 0.519989 84.6197 1.19199 85.5021 2.29599L89.3179 7.08V1.304C89.3179 0.951998 89.5564 0.712006 89.9062 0.712006H92.4422C92.7919 0.712006 93.0305 0.951998 93.0305 1.304V18.912C93.0305 19.264 92.7919 19.504 92.4422 19.504H89.9062C89.5564 19.504 89.3179 19.264 89.3179 18.912V12.944L82.9582 4.88V18.912C82.9582 19.264 82.7197 19.504 82.3699 19.504H79.8021C79.4603 19.504 79.2139 19.264 79.2139 18.912V3.59199C79.2218 1.89599 80.295 0.519989 82.2427 0.519989Z" fill="#CDA50A"/>
<path d="M96.1865 1.304C96.1865 0.951998 96.425 0.712006 96.7748 0.712006H107.276C107.626 0.712006 107.865 0.951998 107.865 1.304V3.63998C107.865 3.99198 107.626 4.232 107.276 4.232H103.914V18.912C103.914 19.264 103.675 19.504 103.325 19.504H100.766C100.416 19.504 100.177 19.264 100.177 18.912V4.232H96.7748C96.425 4.232 96.1865 3.99198 96.1865 3.63998V1.304Z" fill="#CDA50A"/>
<path d="M111.601 0.712006H117.373C121.403 0.712006 123.653 3.34398 123.653 7.48798C123.653 10.744 122.214 12.648 119.861 13.376C120.179 15.072 121.196 16.12 122.961 16.304C123.311 16.328 123.549 16.576 123.549 16.92V19.152C123.549 19.504 123.311 19.744 122.961 19.744C119.352 19.56 117.269 17.808 116.554 14.128H114.765V18.912C114.765 19.264 114.527 19.504 114.177 19.504H111.609C111.267 19.504 111.021 19.264 111.021 18.912V1.304C111.013 0.951998 111.251 0.712006 111.601 0.712006ZM114.749 10.712H116.593C118.891 10.712 119.908 9.74398 119.908 7.48798C119.908 5.11998 118.891 4.23998 116.593 4.23998H114.749V10.712Z" fill="#CDA50A"/>
<path d="M126.666 7.29599C126.666 2.94399 128.534 0.415985 133.956 0.415985C139.409 0.415985 141.278 3.02399 141.278 7.29599V12.864C141.278 17.216 139.409 19.744 133.956 19.744C128.534 19.744 126.666 17.216 126.666 12.864V7.29599ZM130.402 12.488C130.402 15.256 131.229 16.144 133.956 16.144C136.707 16.144 137.533 15.256 137.533 12.488V7.68C137.533 4.912 136.707 4.02399 133.956 4.02399C131.229 4.02399 130.402 4.912 130.402 7.68V12.488Z" fill="#CDA50A"/>
<path d="M145.682 0.712006H148.249C148.599 0.712006 148.838 0.951998 148.838 1.304V13.24C148.838 15.336 149.561 15.984 151.699 15.984H154.776C155.118 15.984 155.364 16.224 155.364 16.576V18.912C155.364 19.264 155.126 19.504 154.776 19.504H150.69C146.977 19.504 145.109 17.864 145.109 14.016V1.304C145.093 0.951998 145.332 0.712006 145.682 0.712006Z" fill="#CDA50A"/>
<path d="M164.729 0.712006H170.739C175.254 0.712006 177.735 3.208 177.735 7.704V12.512C177.735 16.952 175.302 19.504 170.739 19.504H164.729C164.387 19.504 164.141 19.264 164.141 18.912V1.304C164.141 0.951998 164.379 0.712006 164.729 0.712006ZM170.095 15.984C172.981 15.984 173.998 14.832 173.998 11.84V8.39999C173.998 5.41599 173.012 4.232 170.095 4.232H167.877V15.976H170.095V15.984Z" fill="#CDA50A"/>
<path d="M187.33 0.712006H191.551C191.901 0.712006 192.14 0.951998 192.14 1.304V3.63998C192.14 3.99198 191.901 4.232 191.551 4.232H187.569C185.78 4.232 185.033 4.90399 185.033 6.62399V7.86398H191.098C191.44 7.86398 191.687 8.104 191.687 8.456V10.712C191.687 11.064 191.448 11.304 191.098 11.304H185.033V13.616C185.033 15.368 185.812 15.984 187.569 15.984H191.551C191.901 15.984 192.14 16.224 192.14 16.576V18.912C192.14 19.264 191.901 19.504 191.551 19.504H187.33C183.586 19.504 181.296 17.328 181.296 13.696V6.51999C181.288 2.83199 183.642 0.712006 187.33 0.712006Z" fill="#CDA50A"/>
<path d="M200.55 18.776L204.001 3.48C204.454 1.432 206.004 0.384003 207.848 0.384003C209.661 0.384003 211.291 1.432 211.752 3.48L215.146 18.776C215.257 19.208 215.011 19.504 214.582 19.504H211.966C211.672 19.504 211.457 19.312 211.378 19.024L210.71 15.664H205.018L204.327 19.048C204.247 19.32 204.032 19.504 203.738 19.504H201.147C200.686 19.504 200.439 19.208 200.55 18.776ZM210.034 12.296L208.381 4.42399C208.301 3.99199 208.063 3.856 207.848 3.856C207.634 3.856 207.419 3.99199 207.34 4.42399L205.71 12.296H210.034Z" fill="#CDA50A"/>
<path d="M225.282 0.415985C230.759 0.415985 232.119 2.91999 232.119 7.19199V7.408C232.119 7.784 231.88 8.16 231.451 8.16H229.05C228.573 8.16 228.406 7.864 228.406 7.352C228.406 4.584 228.033 4.01599 225.282 4.01599C222.611 4.01599 222.182 4.984 222.182 7.752V12.4C222.182 15.168 222.611 16.136 225.282 16.136C228.033 16.136 228.406 15.568 228.406 12.8C228.406 12.32 228.621 12.072 229.13 12.072H231.483C231.833 12.072 232.127 12.368 232.127 12.744V12.96C232.127 17.312 230.767 19.736 225.29 19.736C219.892 19.736 218.453 17.184 218.453 12.856V7.28798C218.445 2.96798 219.892 0.415985 225.282 0.415985Z" fill="#CDA50A"/>
<path d="M242.382 0.415985C247.859 0.415985 249.218 2.91999 249.218 7.19199V7.408C249.218 7.784 248.98 8.16 248.551 8.16H246.15C245.673 8.16 245.506 7.864 245.506 7.352C245.506 4.584 245.132 4.01599 242.382 4.01599C239.71 4.01599 239.281 4.984 239.281 7.752V12.4C239.281 15.168 239.71 16.136 242.382 16.136C245.132 16.136 245.506 15.568 245.506 12.8C245.506 12.32 245.72 12.072 246.229 12.072H248.582C248.932 12.072 249.226 12.368 249.226 12.744V12.96C249.226 17.312 247.867 19.736 242.389 19.736C236.992 19.736 235.553 17.184 235.553 12.856V7.28798C235.545 2.96798 236.984 0.415985 242.382 0.415985Z" fill="#CDA50A"/>
<path d="M258.671 0.712006H262.892C263.242 0.712006 263.48 0.951998 263.48 1.304V3.63998C263.48 3.99198 263.242 4.232 262.892 4.232H258.909C257.12 4.232 256.373 4.90399 256.373 6.62399V7.86398H262.439C262.781 7.86398 263.027 8.104 263.027 8.456V10.712C263.027 11.064 262.788 11.304 262.439 11.304H256.373V13.616C256.373 15.368 257.152 15.984 258.909 15.984H262.892C263.242 15.984 263.48 16.224 263.48 16.576V18.912C263.48 19.264 263.242 19.504 262.892 19.504H258.671C254.926 19.504 252.637 17.328 252.637 13.696V6.51999C252.637 2.83199 254.99 0.712006 258.671 0.712006Z" fill="#CDA50A"/>
<path d="M277.377 6.16797H274.682C274.387 6.16797 274.149 5.87199 274.149 5.63199V5.35999C274.149 4.55199 273.751 3.69598 272.169 3.69598C270.778 3.69598 270.269 4.52799 270.269 5.35999C270.269 6.22399 270.667 6.80798 271.581 7.35198L275.27 9.63997C277.464 11.008 278.315 12.464 278.315 14.344C278.315 17.784 275.993 19.744 272.464 19.744C269.284 19.744 266.636 18.4 266.636 14.768V14.584C266.636 14.288 266.875 13.968 267.169 13.968H269.896C270.166 13.968 270.405 14.208 270.405 14.48V14.752C270.405 15.776 270.969 16.472 272.464 16.472C274.038 16.472 274.467 15.608 274.467 14.536C274.467 13.728 273.91 13.088 272.949 12.496L269.554 10.424C267.527 9.21598 266.509 7.62398 266.509 5.44798C266.509 2.08798 268.727 0.423981 272.169 0.423981C275.214 0.423981 277.885 1.71198 277.885 5.39998V5.63997C277.877 5.95197 277.583 6.16797 277.377 6.16797Z" fill="#CDA50A"/>
<path d="M281.59 7.29599C281.59 2.94399 283.458 0.415985 288.88 0.415985C294.333 0.415985 296.201 3.02399 296.201 7.29599V12.864C296.201 17.216 294.333 19.744 288.88 19.744C283.458 19.744 281.59 17.216 281.59 12.864V7.29599ZM285.334 12.488C285.334 15.256 286.161 16.144 288.888 16.144C291.638 16.144 292.465 15.256 292.465 12.488V7.68C292.465 4.912 291.638 4.02399 288.888 4.02399C286.161 4.02399 285.334 4.912 285.334 7.68V12.488Z" fill="#CDA50A"/>
<path d="M310.225 6.16797H307.53C307.236 6.16797 306.997 5.87199 306.997 5.63199V5.35999C306.997 4.55199 306.6 3.69598 305.018 3.69598C303.626 3.69598 303.118 4.52799 303.118 5.35999C303.118 6.22399 303.515 6.80798 304.429 7.35198L308.118 9.63997C310.312 11.008 311.163 12.464 311.163 14.344C311.163 17.784 308.841 19.744 305.312 19.744C302.132 19.744 299.485 18.4 299.485 14.768V14.584C299.485 14.288 299.723 13.968 300.017 13.968H302.744C303.014 13.968 303.253 14.208 303.253 14.48V14.752C303.253 15.776 303.817 16.472 305.312 16.472C306.886 16.472 307.315 15.608 307.315 14.536C307.315 13.728 306.759 13.088 305.797 12.496L302.402 10.424C300.375 9.21598 299.357 7.62398 299.357 5.44798C299.357 2.08798 301.575 0.423981 305.018 0.423981C308.062 0.423981 310.733 1.71198 310.733 5.39998V5.63997C310.733 5.95197 310.439 6.16797 310.225 6.16797Z" fill="#CDA50A"/>
<path d="M28.8367 4.76798V15.432C28.8367 17.68 27.0242 19.504 24.7903 19.504H5.28175C3.04788 19.504 1.23535 17.68 1.23535 15.432V4.76798C1.23535 2.51998 3.04788 0.695984 5.28175 0.695984H24.7903C27.0242 0.695984 28.8367 2.51998 28.8367 4.76798Z" fill="#CDA50A"/>
</g>
<defs>
<clipPath id="clip0_142_1776">
<rect width="310.833" height="20" fill="white" transform="translate(0.583496)"/>
</clipPath>
</defs>
</svg>
